<svg width="110" height="28" viewBox="0 0 110 28" fill="none" xmlns="http://www.w3.org/2000/svg">
<path d="M101.016 24.8085C100.924 24.8085 100.837 24.7641 100.783 24.6891L96.3813 18.6008C96.2172 18.3738 95.8597 18.4904 95.8597 18.7709V24.5189C95.8597 24.6789 95.7306 24.8085 95.5713 24.8085H91.1089C90.9497 24.8085 90.8206 24.6789 90.8206 24.5189V3.18505C90.8206 3.02514 90.9497 2.89551 91.1089 2.89551H95.5713C95.7306 2.89551 95.8597 3.02514 95.8597 3.18505V14.1326C95.8597 14.4115 96.2136 14.5292 96.3793 14.3055L100.753 8.40165C100.808 8.32821 100.894 8.28494 100.985 8.28494H106.445C106.689 8.28494 106.822 8.57038 106.667 8.75913L100.374 16.3902C100.286 16.498 100.286 16.6542 100.376 16.7612L106.718 24.3326C106.876 24.5209 106.742 24.8085 106.497 24.8085H101.016Z" fill="#9D396E"/>
<path d="M88.1622 16.3394C88.1622 16.7337 88.1417 17.1417 88.1009 17.5634C88.0867 17.7098 87.9632 17.82 87.8167 17.82H76.9808C76.8128 17.82 76.6796 17.9639 76.7017 18.1311C76.8177 19.0074 77.1311 19.6934 77.6419 20.189C78.2313 20.722 78.9483 20.9885 79.7931 20.9885C80.9834 20.9885 81.8303 20.5108 82.3339 19.5554C82.3865 19.4557 82.4877 19.3894 82.6001 19.3894H87.4082C87.5963 19.3894 87.7341 19.5675 87.6788 19.748C87.3897 20.6914 86.9221 21.5491 86.2762 22.321C85.5689 23.1897 84.6751 23.8707 83.5945 24.3643C82.514 24.8578 81.3058 25.1046 79.9699 25.1046C78.3589 25.1046 76.9248 24.7591 75.6675 24.0681C74.4102 23.3772 73.4279 22.3901 72.7206 21.1069C72.0134 19.8238 71.6598 18.3234 71.6598 16.6059C71.6598 14.8884 72.0036 13.3881 72.6912 12.1049C73.3984 10.8217 74.3807 9.8346 75.638 9.14365C76.8953 8.4527 78.3393 8.10723 79.9699 8.10723C81.5612 8.10723 82.9757 8.44284 84.2134 9.11404C85.4511 9.78525 86.4137 10.7427 87.1013 11.9864C87.8085 13.2301 88.1622 14.6811 88.1622 16.3394ZM82.7168 15.0069C82.8761 15.0069 83.0066 14.8769 82.9937 14.7175C82.9343 13.9834 82.6435 13.3889 82.1211 12.934C81.5317 12.4207 80.795 12.1641 79.911 12.1641C79.0662 12.1641 78.3491 12.4109 77.7598 12.9044C77.2613 13.3362 76.9283 13.9266 76.7606 14.6758C76.7219 14.8487 76.8579 15.0069 77.0344 15.0069H82.7168Z" fill="#9D396E"/>
<path d="M65.0961 10.0643C65.0961 10.3523 65.4909 10.478 65.6788 10.2604C66.1503 9.71413 66.6928 9.26292 67.3063 8.90677C68.1111 8.42154 68.9973 8.15717 69.9649 8.11366C70.1239 8.10651 70.2531 8.23687 70.2531 8.39678V13.1775C70.2531 13.3374 70.124 13.467 69.9648 13.467H68.8681C67.6108 13.467 66.6678 13.7434 66.0391 14.2962C65.4105 14.8292 65.0961 15.7768 65.0961 17.1389V24.5189C65.0961 24.6788 64.967 24.8085 64.8078 24.8085H60.3453C60.1861 24.8085 60.057 24.6788 60.057 24.5189V8.57445C60.057 8.41454 60.1861 8.28491 60.3453 8.28491H64.8078C64.967 8.28491 65.0961 8.41454 65.0961 8.57445V10.0643Z" fill="#9D396E"/>
<path d="M39.0544 16.5763C39.0544 14.8785 39.3687 13.3881 39.9974 12.1049C40.6457 10.8217 41.5199 9.83461 42.6201 9.14366C43.7203 8.45271 44.9481 8.10723 46.3037 8.10723C47.4628 8.10723 48.4745 8.34413 49.3389 8.81792C49.8893 9.1129 50.3598 9.46527 50.7503 9.87502C50.9513 10.086 51.3723 9.95192 51.3723 9.65993V8.63367C51.3723 8.47376 51.5014 8.34413 51.6606 8.34413H56.1231C56.2823 8.34413 56.4114 8.47376 56.4114 8.63367V24.5781C56.4114 24.738 56.2823 24.8677 56.1231 24.8677H51.6606C51.5014 24.8677 51.3723 24.738 51.3723 24.5781V23.5171C51.3723 23.2279 50.9632 23.095 50.764 23.3038C50.3594 23.7277 49.8746 24.091 49.3095 24.3939C48.4451 24.8677 47.4333 25.1046 46.2742 25.1046C44.9383 25.1046 43.7203 24.7591 42.6201 24.0681C41.5199 23.3575 40.6457 22.3605 39.9974 21.0773C39.3687 19.7744 39.0544 18.2741 39.0544 16.5763ZM51.3723 16.6059C51.3723 15.3425 51.0186 14.3455 50.3114 13.6151C49.6238 12.8847 48.779 12.5194 47.7771 12.5194C46.7752 12.5194 45.9206 12.8847 45.2133 13.6151C44.5257 14.3258 44.1819 15.3128 44.1819 16.5763C44.1819 17.8397 44.5257 18.8466 45.2133 19.5967C45.9206 20.3272 46.7752 20.6924 47.7771 20.6924C48.779 20.6924 49.6238 20.3272 50.3114 19.5967C51.0186 18.8663 51.3723 17.8694 51.3723 16.6059Z" fill="#9D396E"/>
<path d="M30.2912 8.10723C32.1772 8.10723 33.6899 8.73896 34.8294 10.0024C35.9688 11.2461 36.5385 12.9636 36.5385 15.1549V24.5189C36.5385 24.6788 36.4095 24.8084 36.2502 24.8084H31.8172C31.658 24.8084 31.5289 24.6788 31.5289 24.5189V15.836C31.5289 14.7305 31.244 13.8717 30.6743 13.2597C30.1046 12.6478 29.3384 12.3418 28.3758 12.3418C27.4131 12.3418 26.6469 12.6478 26.0772 13.2597C25.5075 13.8717 25.2226 14.7305 25.2226 15.836V24.5189C25.2226 24.6788 25.0935 24.8084 24.9343 24.8084H20.4718C20.3126 24.8084 20.1835 24.6788 20.1835 24.5189V3.18505C20.1835 3.02514 20.3126 2.89551 20.4718 2.89551H24.9343C25.0935 2.89551 25.2226 3.02514 25.2226 3.18505V9.58966C25.2226 9.87253 25.6111 10.0064 25.8122 9.80832C26.2323 9.39435 26.7332 9.04447 27.3149 8.7587C28.1989 8.32439 29.1911 8.10723 30.2912 8.10723Z" fill="#9D396E"/>
<path d="M10.4568 25.1046C9.02265 25.1046 7.74568 24.8578 6.62587 24.3643C5.50607 23.8707 4.62201 23.1995 3.9737 22.3506C3.38885 21.567 3.03582 20.7031 2.91462 19.7588C2.8932 19.5919 3.02621 19.4487 3.19383 19.4487H7.60349C7.75125 19.4487 7.87271 19.5616 7.90564 19.7062C8.00936 20.1619 8.26055 20.54 8.6592 20.8404C9.1307 21.1958 9.71025 21.3734 10.3978 21.3734C11.0265 21.3734 11.5078 21.255 11.8418 21.0181C12.1954 20.7615 12.3722 20.4357 12.3722 20.0409C12.3722 19.5671 12.1267 19.2216 11.6355 19.0045C11.1444 18.7676 10.3487 18.5109 9.24858 18.2346C8.06983 17.9582 7.08755 17.6719 6.30172 17.3758C5.51589 17.06 4.83811 16.5763 4.26839 15.9248C3.69866 15.2536 3.4138 14.3554 3.4138 13.2301C3.4138 12.2825 3.66919 11.4238 4.17998 10.6539C4.71042 9.86422 5.4766 9.24236 6.47853 8.78831C7.50011 8.33426 8.70832 8.10723 10.1032 8.10723C12.166 8.10723 13.7867 8.62051 14.9655 9.64706C16.0879 10.6085 16.7622 11.8644 16.9885 13.4146C17.0133 13.5846 16.8793 13.7335 16.7082 13.7335H12.6236C12.4795 13.7335 12.3597 13.6261 12.3254 13.4857C12.2137 13.0284 11.9739 12.657 11.6061 12.3714C11.1935 12.0358 10.6434 11.868 9.95582 11.868C9.36645 11.868 8.9146 11.9864 8.60027 12.2233C8.28594 12.4405 8.12877 12.7465 8.12877 13.1413C8.12877 13.6151 8.37434 13.9704 8.86548 14.2073C9.37627 14.4442 10.1621 14.6811 11.223 14.918C12.441 15.2339 13.4331 15.5497 14.1993 15.8656C14.9655 16.1617 15.6334 16.6553 16.2032 17.3462C16.7925 18.0174 17.097 18.9255 17.1167 20.0705C17.1167 21.0378 16.8416 21.9065 16.2916 22.6764C15.7611 23.4266 14.9851 24.0188 13.9635 24.4531C12.9616 24.8874 11.7927 25.1046 10.4568 25.1046Z" fill="#9D396E"/>
<path d="M102.374 16.7907C102.282 16.6828 102.282 16.524 102.373 16.4156L106.608 11.389C106.782 11.1831 107.117 11.3063 107.117 11.576V21.5822C107.117 21.8513 106.783 21.9749 106.609 21.7703L102.374 16.7907Z" fill="#F09647"/>
</svg>
