<svg width="157" height="34" viewBox="0 0 157 34" fill="none" xmlns="http://www.w3.org/2000/svg">
<path d="M147.524 33.2125C147.386 33.2125 147.256 33.1459 147.174 33.0334L140.572 23.901C140.326 23.5605 139.789 23.7354 139.789 24.1562V32.7782C139.789 33.0181 139.596 33.2125 139.357 33.2125H132.663C132.424 33.2125 132.231 33.0181 132.231 32.7782V0.77739C132.231 0.537527 132.424 0.343079 132.663 0.343079H139.357C139.596 0.343079 139.789 0.537526 139.789 0.777389V17.1988C139.789 17.617 140.32 17.7936 140.569 17.458L147.13 8.60229C147.212 8.49214 147.34 8.42722 147.477 8.42722H155.667C156.033 8.42722 156.233 8.85539 156 9.13852L146.562 20.5851C146.428 20.7468 146.429 20.9811 146.564 21.1417L156.077 32.4987C156.314 32.7812 156.114 33.2125 155.746 33.2125H147.524Z" fill="white"/>
<path d="M128.243 20.5089C128.243 21.1004 128.213 21.7124 128.151 22.3449C128.13 22.5644 127.945 22.7298 127.725 22.7298H111.471C111.219 22.7298 111.019 22.9456 111.052 23.1964C111.226 24.511 111.697 25.5399 112.463 26.2833C113.347 27.0828 114.422 27.4826 115.69 27.4826C117.475 27.4826 118.745 26.766 119.501 25.333C119.58 25.1834 119.731 25.084 119.9 25.084H127.112C127.394 25.084 127.601 25.351 127.518 25.6218C127.084 27.0369 126.383 28.3235 125.414 29.4814C124.353 30.7843 123.012 31.8059 121.392 32.5462C119.771 33.2865 117.959 33.6567 115.955 33.6567C113.538 33.6567 111.387 33.1385 109.501 32.102C107.615 31.0656 106.142 29.585 105.081 27.6602C104.02 25.7354 103.49 23.4849 103.49 20.9087C103.49 18.3324 104.005 16.0819 105.037 14.1571C106.097 12.2323 107.571 10.7517 109.457 9.7153C111.343 8.67887 113.509 8.16067 115.955 8.16067C118.342 8.16067 120.463 8.66407 122.32 9.67088C124.176 10.6777 125.62 12.1139 126.652 13.9794C127.713 15.845 128.243 18.0215 128.243 20.5089ZM120.075 18.5101C120.314 18.5101 120.51 18.3152 120.49 18.0761C120.401 16.975 119.965 16.0832 119.182 15.4008C118.297 14.6309 117.192 14.2459 115.866 14.2459C114.599 14.2459 113.524 14.6161 112.64 15.3564C111.892 16.0041 111.392 16.8898 111.141 18.0135C111.083 18.2729 111.287 18.5101 111.551 18.5101H120.075Z" fill="white"/>
<path d="M93.6441 11.0962C93.6441 11.5283 94.2363 11.7169 94.5181 11.3904C95.2254 10.571 96.0391 9.8942 96.9593 9.35997C98.1665 8.63213 99.4958 8.23557 100.947 8.17031C101.186 8.15958 101.38 8.35512 101.38 8.59498V15.766C101.38 16.0059 101.186 16.2004 100.947 16.2004H99.302C97.416 16.2004 96.0016 16.6149 95.0586 17.4441C94.1156 18.2436 93.6441 19.665 93.6441 21.7082V32.7782C93.6441 33.0181 93.4504 33.2125 93.2116 33.2125H86.5179C86.279 33.2125 86.0854 33.0181 86.0854 32.7782V8.86149C86.0854 8.62163 86.279 8.42718 86.5179 8.42718H93.2116C93.4504 8.42718 93.6441 8.62163 93.6441 8.86149V11.0962Z" fill="white"/>
<path d="M54.5815 20.8643C54.5815 18.3176 55.053 16.0819 55.996 14.1571C56.9684 12.2323 58.2798 10.7517 59.93 9.7153C61.5803 8.67888 63.4221 8.16067 65.4554 8.16067C67.194 8.16067 68.7117 8.51601 70.0083 9.2267C70.8339 9.66917 71.5396 10.1977 72.1253 10.8123C72.4268 11.1288 73.0583 10.9277 73.0583 10.4897V8.95033C73.0583 8.71046 73.2519 8.51601 73.4908 8.51601H80.1845C80.4233 8.51601 80.617 8.71046 80.617 8.95033V32.867C80.617 33.1069 80.4233 33.3013 80.1845 33.3013H73.4908C73.2519 33.3013 73.0583 33.1069 73.0583 32.867V31.2755C73.0583 30.8416 72.4448 30.6424 72.1458 30.9556C71.539 31.5913 70.8117 32.1364 69.9641 32.5906C68.6675 33.3013 67.1498 33.6567 65.4112 33.6567C63.4073 33.6567 61.5803 33.1385 59.93 32.102C58.2798 31.036 56.9684 29.5406 55.996 27.6158C55.053 25.6614 54.5815 23.4109 54.5815 20.8643ZM73.0583 20.9087C73.0583 19.0135 72.5278 17.5181 71.467 16.4224C70.4356 15.3268 69.1684 14.779 67.6655 14.779C66.1626 14.779 64.8808 15.3268 63.8199 16.4224C62.7885 17.4885 62.2728 18.9691 62.2728 20.8643C62.2728 22.7594 62.7885 24.2696 63.8199 25.3949C64.8808 26.4906 66.1626 27.0384 67.6655 27.0384C69.1684 27.0384 70.4356 26.4906 71.467 25.3949C72.5278 24.2993 73.0583 22.8038 73.0583 20.9087Z" fill="white"/>
<path d="M41.4367 8.16067C44.2657 8.16067 46.5348 9.10825 48.2439 11.0034C49.9531 12.869 50.8077 15.4452 50.8077 18.7322V32.7782C50.8077 33.018 50.6141 33.2125 50.3752 33.2125H43.7257C43.4869 33.2125 43.2932 33.018 43.2932 32.7782V19.7538C43.2932 18.0955 42.8659 16.8074 42.0113 15.8894C41.1567 14.9714 40.0075 14.5125 38.5635 14.5125C37.1196 14.5125 35.9703 14.9714 35.1157 15.8894C34.2611 16.8074 33.8338 18.0955 33.8338 19.7538V32.7782C33.8338 33.018 33.6402 33.2125 33.4013 33.2125H26.7076C26.4688 33.2125 26.2751 33.018 26.2751 32.7782V0.777389C26.2751 0.537526 26.4688 0.343079 26.7076 0.343079H33.4013C33.6402 0.343079 33.8338 0.537526 33.8338 0.777389V10.3843C33.8338 10.8086 34.4166 11.0095 34.7182 10.7123C35.3483 10.0913 36.0997 9.56652 36.9722 9.13787C38.2983 8.4864 39.7865 8.16067 41.4367 8.16067Z" fill="white"/>
<path d="M11.6851 33.6567C9.53385 33.6567 7.6184 33.2865 5.93869 32.5462C4.25898 31.8059 2.93289 30.7991 1.96043 29.5258C1.08315 28.3504 0.553607 27.0545 0.371815 25.6381C0.339674 25.3876 0.539186 25.1728 0.790629 25.1728H7.40511C7.62676 25.1728 7.80895 25.3422 7.85834 25.5592C8.01392 26.2427 8.3907 26.8098 8.98868 27.2605C9.69593 27.7935 10.5653 28.06 11.5967 28.06C12.5396 28.06 13.2616 27.8823 13.7626 27.527C14.293 27.142 14.5582 26.6534 14.5582 26.0612C14.5582 25.3505 14.1899 24.8323 13.4532 24.5065C12.7165 24.1512 11.523 23.7662 9.87274 23.3517C8.10463 22.9371 6.6312 22.5077 5.45246 22.0635C4.27371 21.5898 3.25705 20.8643 2.40246 19.8871C1.54787 18.8802 1.12058 17.5329 1.12058 15.845C1.12058 14.4236 1.50367 13.1355 2.26985 11.9806C3.0655 10.7961 4.21478 9.86336 5.71767 9.18229C7.25004 8.50121 9.06236 8.16067 11.1546 8.16067C14.2488 8.16067 16.68 8.93058 18.4481 10.4704C20.1317 11.9126 21.1432 13.7964 21.4826 16.1218C21.5198 16.3768 21.3189 16.6001 21.0622 16.6001H14.9352C14.7192 16.6001 14.5394 16.439 14.4879 16.2283C14.3204 15.5425 13.9607 14.9853 13.409 14.5569C12.7901 14.0535 11.965 13.8018 10.9336 13.8018C10.0496 13.8018 9.37178 13.9794 8.90028 14.3348C8.42878 14.6605 8.19303 15.1195 8.19303 15.7118C8.19303 16.4224 8.56139 16.9555 9.2981 17.3108C10.0643 17.6661 11.243 18.0215 12.8343 18.3768C14.6614 18.8506 16.1495 19.3244 17.2988 19.7982C18.4481 20.2424 19.45 20.9827 20.3046 22.0191C21.1887 23.0259 21.6454 24.3881 21.6749 26.1056C21.6749 27.5566 21.2623 28.8595 20.4372 30.0144C19.6416 31.1396 18.4776 32.028 16.9452 32.6795C15.4423 33.3309 13.6889 33.6567 11.6851 33.6567Z" fill="white"/>
<path d="M149.561 21.1858C149.423 21.024 149.423 20.7858 149.56 20.6233L155.912 13.0833C156.173 12.7744 156.675 12.9592 156.675 13.3638V28.3731C156.675 28.7768 156.175 28.9621 155.914 28.6552L149.561 21.1858Z" fill="#F09647"/>
</svg>
