<svg width="51" height="50" viewBox="0 0 51 50" fill="none" xmlns="http://www.w3.org/2000/svg">
<rect x="1.16675" y="1" width="48" height="48" rx="24" fill="#151D20"/>
<rect x="1.16675" y="1" width="48" height="48" rx="24" stroke="#FCD9EC" stroke-width="2"/>
<path d="M21.6667 27.6667C21.6667 28.9553 22.7114 30 24.0001 30H26.1667C27.5475 30 28.6667 28.8807 28.6667 27.5C28.6667 26.1193 27.5475 25 26.1667 25H24.1667C22.786 25 21.6667 23.8807 21.6667 22.5C21.6667 21.1193 22.786 20 24.1667 20H26.3334C27.6221 20 28.6667 21.0447 28.6667 22.3333M25.1667 18.5V20M25.1667 30V31.5M35.1667 25C35.1667 30.5228 30.6896 35 25.1667 35C19.6439 35 15.1667 30.5228 15.1667 25C15.1667 19.4772 19.6439 15 25.1667 15C30.6896 15 35.1667 19.4772 35.1667 25Z" stroke="#FCD9EC" stroke-width="2" stroke-linecap="round" stroke-linejoin="round"/>
</svg>
